<?xml version="1.0" encoding="iso-8859-1"?>
<!-- Generator: Adobe Illustrator 19.0.0, SVG Export Plug-In . SVG Version: 6.00 Build 0)  -->
<svg version="1.1" id="Capa_1" xmlns="http://www.w3.org/2000/svg"  x="0px" y="0px"
	 viewBox="0 0 473.68 473.68" style="enable-background:new 0 0 473.68 473.68;" xml:space="preserve">
<g>
	<circle style="fill:#FFFFFF;" cx="236.85" cy="236.85" r="236.83"/>
	<circle style="fill:#FFFFFF;" cx="236.85" cy="236.85" r="236.83"/>
</g>
<path style="fill:#258F44;" d="M460.144,157.874c-0.026-0.075-0.049-0.138-0.075-0.206C429.756,72.2,351.79,9.319,258.109,0.972
	c36.248,19.872,46.834,82.832,56.109,156.901c6.335,50.593,6.376,106.339,0.12,156.999c-9.196,74.47-19.827,137.874-56.228,157.829
	c93.848-8.362,171.927-71.46,202.12-157.156c0.079-0.228,0.146-0.452,0.228-0.673c8.526-24.438,13.219-50.682,13.219-78.03
	C473.678,209.139,468.88,182.577,460.144,157.874z"/>
<path style="fill:#359846;" d="M326.413,157.874c-9.27-74.07-32.052-137.029-68.303-156.901C251.098,0.352,244.007,0,236.835,0
	C133.807,0,46.188,65.802,13.608,157.668c-0.026,0.067-0.049,0.131-0.075,0.206c-8.735,24.703-13.533,51.265-13.533,78.968
	c0,27.348,4.693,53.592,13.219,78.03c0.079,0.221,0.15,0.445,0.228,0.673C45.9,407.647,133.637,473.68,236.835,473.68
	c7.173,0,14.263-0.352,21.274-0.98c36.401-19.954,59.227-83.359,68.423-157.829C332.789,264.212,332.747,208.47,326.413,157.874z"/>
<circle style="fill:#EC1C24;" cx="236.85" cy="236.85" r="87.25"/>
<g>
</g>
<g>
</g>
<g>
</g>
<g>
</g>
<g>
</g>
<g>
</g>
<g>
</g>
<g>
</g>
<g>
</g>
<g>
</g>
<g>
</g>
<g>
</g>
<g>
</g>
<g>
</g>
<g>
</g>
</svg>
