<?xml version="1.0" encoding="iso-8859-1"?>
<!-- Generator: Adobe Illustrator 19.0.0, SVG Export Plug-In . SVG Version: 6.00 Build 0)  -->
<svg version="1.1" id="Layer_1" xmlns="http://www.w3.org/2000/svg"  x="0px" y="0px"
	 viewBox="0 0 508 508" style="enable-background:new 0 0 508 508;" xml:space="preserve">
<circle style="fill:#6DB8E0;" cx="254" cy="254" r="254"/>
<path style="fill:#36505F;" d="M367.2,387.2H140.8c-11,0-19.8-9-19.8-19.8V140.8c0-11,9-19.8,19.8-19.8h226.4c11,0,19.8,9,19.8,19.8
	v226.4C387.2,378.2,378.2,387.2,367.2,387.2z"/>
<path style="fill:#2C424F;" d="M254,156.8c-21.8,0-42.4,4.8-61,13.2l29.8,40.6c9.8-3.2,20.4-5.2,31.4-5.2c11,0,21.4,1.8,31.4,5.2
	l29.8-40.6C296.4,161.6,275.8,156.8,254,156.8z"/>
<path style="fill:#EDF0F2;" d="M254,154.8c-21.2,0-41.2,4.6-59.2,12.8l28.8,39.4c9.6-3.2,19.8-5,30.4-5c10.6,0,20.8,1.8,30.4,5
	l28.8-39.4C295.2,159.4,275.2,154.8,254,154.8z"/>
<rect x="252" y="157.6" style="fill:#E65336;" width="4.2" height="39.6"/>
<g>
</g>
<g>
</g>
<g>
</g>
<g>
</g>
<g>
</g>
<g>
</g>
<g>
</g>
<g>
</g>
<g>
</g>
<g>
</g>
<g>
</g>
<g>
</g>
<g>
</g>
<g>
</g>
<g>
</g>
</svg>
