<?xml version="1.0"?>
<svg xmlns="http://www.w3.org/2000/svg"  version="1.1" id="Layer_1" x="0px" y="0px" viewBox="0 0 505 505" style="enable-background:new 0 0 505 505;" xml:space="preserve" width="512px" height="512px" class=""><g><circle style="fill:#FFFFFF" cx="252.5" cy="252.5" r="252.5" data-original="#90DFAA" class="active-path" data-old_color="#ffffff"/><path style="fill:#324A5E;" d="M379.9,430.1H125.1c-2.6,0-4.7-2.1-4.7-4.7V102.5c0-2.6,2.1-4.7,4.7-4.7H380c2.6,0,4.7,2.1,4.7,4.7  v323C384.6,428,382.5,430.1,379.9,430.1z" data-original="#324A5E" class=""/><polygon style="fill:#FFFFFF;" points="146.4,116.8 146.4,379.6 321.6,379.6 321.6,342.7 358.6,342.7 358.6,116.8 " data-original="#FFFFFF" class=""/><polygon style="fill:#E6E9EE;" points="321.6,379.6 358.6,342.7 321.6,342.7 " data-original="#E6E9EE" class=""/><path style="fill:#FF7058;" d="M273.3,87.2v-7.3c0-11.5-9.3-20.8-20.8-20.8c-11.5,0-20.8,9.3-20.8,20.8v7.3H195v42.6h115.1V87.2  H273.3z" data-original="#FF7058"/><circle style="fill:#FFFFFF" cx="252.5" cy="79.9" r="10.4" data-original="#90DFAA" class="active-path" data-old_color="#ffffff"/><path style="fill:#E6E9EE;" d="M295.1,309.1H176.6V190.6h118.5V309.1z M188.3,297.5h95.2v-95.2h-95.2V297.5z" data-original="#E6E9EE" class=""/><polygon style="fill:#54C0EB" points="243.9,285.4 200.3,241.8 220.9,221.2 243.9,244.2 307.8,180.4 328.4,201 " data-original="#54C0EB" class=""/></g> </svg>
