<?xml version="1.0" encoding="iso-8859-1"?>
<!-- Generator: Adobe Illustrator 19.0.0, SVG Export Plug-In . SVG Version: 6.00 Build 0)  -->
<svg version="1.1" id="Capa_1" xmlns="http://www.w3.org/2000/svg"  x="0px" y="0px"
	 viewBox="0 0 512 512" style="enable-background:new 0 0 512 512;" xml:space="preserve">
<circle style="fill:#004EB1;" cx="256" cy="256" r="256"/>
<path style="fill:#002D6B;" d="M512,256c0-7.111-0.304-14.151-0.873-21.116L394.122,117.878l-26.579,44.214l-89.511-89.511
	L67.469,273.662l85.552,85.552l-35.143,34.908l117.006,117.006C241.849,511.696,248.889,512,256,512
	C397.385,512,512,397.385,512,256z"/>
<path style="fill:#FEDB41;" d="M425,229.667h-14.21c-4.009-23.731-13.331-45.657-26.718-64.498l10.05-10.049
	c10.284-10.284,10.284-26.958,0-37.241l0,0c-10.284-10.284-26.957-10.284-37.241,0l-10.05,10.05
	c-18.841-13.387-40.766-22.709-64.498-26.718V87c0-14.543-11.79-26.333-26.333-26.333S229.667,72.457,229.667,87v14.21
	c-23.732,4.008-45.657,13.331-64.498,26.717l-10.049-10.049c-10.284-10.284-26.957-10.284-37.241,0l0,0
	c-10.284,10.284-10.284,26.957,0,37.241l10.05,10.05c-13.386,18.841-22.709,40.766-26.718,64.498H87
	c-14.543,0-26.333,11.79-26.333,26.333l0,0c0,14.543,11.79,26.333,26.333,26.333h14.21c4.009,23.731,13.331,45.657,26.718,64.498
	l-10.05,10.049c-10.284,10.284-10.284,26.958,0,37.241l0,0c10.284,10.284,26.957,10.284,37.241,0l10.05-10.05
	c18.841,13.387,40.766,22.709,64.498,26.718V425c0,14.543,11.79,26.333,26.333,26.333s26.333-11.79,26.333-26.333v-14.21
	c23.732-4.008,45.657-13.331,64.498-26.717l10.049,10.049c10.284,10.284,26.957,10.284,37.241,0l0,0
	c10.284-10.284,10.284-26.957,0-37.241l-10.05-10.05c13.387-18.841,22.709-40.766,26.718-64.498H425
	c14.543,0,26.333-11.79,26.333-26.333l0,0C451.333,241.457,439.543,229.667,425,229.667z"/>
<path style="fill:#FCBF29;" d="M425,229.667h-14.21c-4.009-23.731-13.331-45.657-26.718-64.498l10.05-10.049
	c10.284-10.284,10.284-26.958,0-37.241s-26.957-10.284-37.241,0l-10.05,10.05c-18.841-13.387-40.766-22.709-64.498-26.718V87
	c0-14.543-11.79-26.333-26.333-26.333c-0.016,0-0.032,0.001-0.048,0.001v390.664c0.016,0,0.031,0.001,0.048,0.001
	c14.543,0,26.333-11.79,26.333-26.333v-14.21c23.732-4.008,45.657-13.331,64.498-26.717l10.049,10.049
	c10.284,10.284,26.957,10.284,37.241,0l0,0c10.284-10.284,10.284-26.957,0-37.241l-10.05-10.05
	c13.387-18.841,22.709-40.766,26.718-64.498H425c14.543,0,26.333-11.79,26.333-26.333S439.543,229.667,425,229.667z"/>
<circle style="fill:#FFFFFF;" cx="214.94" cy="216.94" r="66.6"/>
<path style="fill:#E0E0E0;" d="M214.937,150.333c-0.019,0-0.037,0.001-0.056,0.001v133.203c0.019,0,0.037,0.001,0.056,0.001
	c36.784,0,66.603-29.819,66.603-66.603C281.54,180.152,251.72,150.333,214.937,150.333z"/>
<circle style="fill:#FE9A35;" cx="297.73" cy="299.73" r="66.6"/>
<path style="fill:#FF7C11;" d="M297.73,233.127c-0.237,0-0.47,0.016-0.706,0.018v133.17c0.236,0.002,0.469,0.018,0.706,0.018
	c36.784,0,66.603-29.819,66.603-66.603S334.514,233.127,297.73,233.127z"/>
<g>
</g>
<g>
</g>
<g>
</g>
<g>
</g>
<g>
</g>
<g>
</g>
<g>
</g>
<g>
</g>
<g>
</g>
<g>
</g>
<g>
</g>
<g>
</g>
<g>
</g>
<g>
</g>
<g>
</g>
</svg>
