<?xml version="1.0" encoding="iso-8859-1"?>
<!-- Generator: Adobe Illustrator 19.0.0, SVG Export Plug-In . SVG Version: 6.00 Build 0)  -->
<svg version="1.1" id="Layer_1" xmlns="http://www.w3.org/2000/svg"  x="0px" y="0px"
	 viewBox="0 0 492.8 492.8" style="enable-background:new 0 0 492.8 492.8;" xml:space="preserve">
<circle style="fill:#EA8D65;" cx="246.4" cy="246.4" r="246.4"/>
<path style="fill:#D8663F;" d="M72.8,72.8c96-96,252-96,348,0s96,252,0,348"/>
<circle style="fill:#FFB9A4;" cx="246.4" cy="246.4" r="200"/>
<path style="fill:#EFA28E;" d="M246.4,46.4c110.4,0,200,89.6,200,200s-89.6,200-200,200"/>
<g>

		<ellipse transform="matrix(-0.6286 -0.7777 0.7777 -0.6286 162.3484 323.4183)" style="fill:#FFD0B6;" cx="158.396" cy="122.946" rx="34.399" ry="92.798"/>
	<ellipse style="fill:#FFD0B6;" cx="80" cy="218.4" rx="16" ry="14.4"/>
	<ellipse style="fill:#FFD0B6;" cx="75.2" cy="261.6" rx="7.2" ry="6.4"/>
</g>
<g style="opacity:0.5;">
	<circle style="fill:#EADE86;" cx="246.4" cy="246.4" r="48.8"/>
</g>
<path style="fill:#00233F;" d="M129.6,265.6c0,0-43.2,36-37.6,82.4c5.6,44,33.6,104-92,122.4c0,0,116,0.8,108.8-104.8
	c0,0,0-45.6,44-79.2L129.6,265.6z"/>
<path style="fill:#0D4972;" d="M219.2,269.6c-31.2,31.2-56,24.8-75.2,4.8c-19.2-19.2-25.6-44.8,4.8-75.2
	c31.2-31.2,72-40.8,91.2-20.8C259.2,197.6,250.4,238.4,219.2,269.6z"/>
<path style="fill:#00233F;" d="M240,178.4c19.2,19.2,9.6,60.8-20.8,91.2c-30.4,30.4-56,24.8-75.2,4.8"/>
<path style="fill:#0D4972;" d="M176.8,308.8c-4,4-11.2,4-15.2,0l-52-52c-4-4-4-11.2,0-15.2l0,0c4-4,11.2-4,15.2,0l52,52
	C180.8,297.6,180.8,304.8,176.8,308.8L176.8,308.8z"/>
<path style="fill:#00233F;" d="M109.6,241.6L109.6,241.6c4-4,11.2-4,15.2,0l52,52c4,4,4,11.2,0,15.2l0,0"/>
<g>

		<ellipse transform="matrix(0.9872 -0.1596 0.1596 0.9872 -26.474 35.1516)" style="fill:#156089;" cx="205.604" cy="182.393" rx="20.8" ry="8.8"/>
	<circle style="fill:#156089;" cx="176" cy="192" r="5.6"/>
</g>
<g>
</g>
<g>
</g>
<g>
</g>
<g>
</g>
<g>
</g>
<g>
</g>
<g>
</g>
<g>
</g>
<g>
</g>
<g>
</g>
<g>
</g>
<g>
</g>
<g>
</g>
<g>
</g>
<g>
</g>
</svg>
