<?xml version="1.0" encoding="iso-8859-1"?>
<!-- Generator: Adobe Illustrator 19.0.0, SVG Export Plug-In . SVG Version: 6.00 Build 0)  -->
<svg version="1.1" id="Capa_1" xmlns="http://www.w3.org/2000/svg"  x="0px" y="0px"
	 viewBox="0 0 512 512" style="enable-background:new 0 0 512 512;" xml:space="preserve">
<circle style="fill:#FEDB41;" cx="256" cy="256" r="256"/>
<path style="fill:#FCBF29;" d="M512,256c0-15.761-1.433-31.186-4.16-46.16L386.333,88.333l-16.688,34.979l-52.979-52.979
	l-191,353.333l84.173,84.173c14.974,2.727,30.399,4.16,46.16,4.16C397.385,512,512,397.385,512,256z"/>
<rect x="125.67" y="88.33" style="fill:#607D8A;" width="260.67" height="335.33"/>
<rect x="255.95" y="88.33" style="fill:#435E68;" width="130.38" height="335.33"/>
<rect id="SVGCleanerId_0" x="148" y="105.67" style="fill:#FFFFFF;" width="216" height="294"/>
<g>
	<rect id="SVGCleanerId_0_1_" x="148" y="105.67" style="fill:#FFFFFF;" width="216" height="294"/>
</g>
<rect x="255.95" y="105.67" style="fill:#E0E0E0;" width="108.05" height="294"/>
<rect x="195.33" y="70.33" style="fill:#455A64;" width="121.33" height="40"/>
<rect x="255.95" y="70.33" style="fill:#2E4047;" width="60.714" height="40"/>
<path style="fill:#E0E0E0;" d="M338.633,191.269l-12.349-21.39l17.237-17.237L331.5,140.621l-19.907,19.907h-26.204l-0.272,0.471
	l-17.246-29.871h-35.496l-17.522,30.346l-0.546-0.946H178.81l-17.748,30.741l17.748,30.741h35.497l17.521-30.348l0.547,0.948h35.496
	l0.272-0.471l17.246,29.871h27.1l19.01,19.011L343.521,229l-16.909-16.909L338.633,191.269z M204.492,205.01h-15.868l-7.934-13.741
	l7.934-13.741h15.868l7.934,13.741L204.492,205.01z M258.057,175.61H242.19l-7.934-13.741l7.934-13.741h15.867l7.934,13.741
	L258.057,175.61z M287.27,191.269l7.934-13.741h15.867l7.934,13.741l-7.934,13.741h-15.867L287.27,191.269z"/>
<g>
	<path style="fill:#C0C0C0;" d="M338.633,191.269l-12.349-21.39l17.237-17.237L331.5,140.621l-19.907,19.907h-26.204l-0.272,0.471
		l-17.246-29.871h-11.919v17h2.104l7.934,13.741l-7.934,13.741h-2.104v17h11.919l0.272-0.471l17.246,29.871h27.1l19.01,19.011
		L343.521,229l-16.909-16.909L338.633,191.269z M311.07,205.01h-15.867l-7.934-13.741l7.934-13.741h15.867l7.934,13.741
		L311.07,205.01z"/>
	<rect x="177" y="277.83" style="fill:#C0C0C0;" width="158" height="17"/>
</g>
<rect x="255.95" y="277.83" style="fill:#758F9B;" width="79.05" height="17"/>
<rect x="177" y="310.44" style="fill:#C0C0C0;" width="158" height="17"/>
<rect x="255.95" y="310.44" style="fill:#758F9B;" width="79.05" height="17"/>
<rect x="177" y="341.99" style="fill:#C0C0C0;" width="158" height="17"/>
<rect x="255.95" y="341.99" style="fill:#758F9B;" width="79.05" height="17"/>
<g>
</g>
<g>
</g>
<g>
</g>
<g>
</g>
<g>
</g>
<g>
</g>
<g>
</g>
<g>
</g>
<g>
</g>
<g>
</g>
<g>
</g>
<g>
</g>
<g>
</g>
<g>
</g>
<g>
</g>
</svg>
