<?xml version="1.0" encoding="iso-8859-1"?>
<!-- Generator: Adobe Illustrator 19.0.0, SVG Export Plug-In . SVG Version: 6.00 Build 0)  -->
<svg version="1.1" id="Layer_1" xmlns="http://www.w3.org/2000/svg"  x="0px" y="0px"
	 viewBox="0 0 507.5 507.5" style="enable-background:new 0 0 507.5 507.5;" xml:space="preserve">
<circle style="fill:#22B2B2;" cx="253.75" cy="249.828" r="238.4"/>
<path style="fill:#FCCCB9;" d="M96.95,503.428c0,10.4,35.2-2.4,55.2-2.4c19.2,0,18.4-8.8,18.4-19.2c0-10.4,1.6-18.4-18.4-19.2
	C125.75,461.828,96.95,493.028,96.95,503.428z"/>
<path style="fill:#EAA78C;" d="M169.75,482.628c0-10.4,1.6-18.4-18.4-19.2c-25.6-1.6-55.2,29.6-55.2,40"/>
<g>
	<polygon style="fill:#FCCCB9;" points="177.75,304.228 148.15,302.628 148.15,204.228 180.15,204.228 	"/>
	<polygon style="fill:#FCCCB9;" points="116.95,397.028 84.95,409.028 148.95,299.428 191.35,299.428 	"/>
</g>
<g>
	<polyline style="fill:#EAA78C;" points="191.35,299.428 116.95,397.028 84.95,409.028 	"/>
	<polygon style="fill:#EAA78C;" points="328.15,304.228 356.95,302.628 356.95,204.228 325.75,204.228 	"/>
	<polygon style="fill:#EAA78C;" points="388.95,397.028 420.15,409.028 356.15,299.428 314.55,299.428 	"/>
</g>
<path style="fill:#093751;" d="M460.15,452.228c0,44-92,52.8-206.4,52.8s-206.4-8.8-206.4-52.8s92-80,206.4-80
	S460.15,407.428,460.15,452.228z"/>
<path style="fill:#0D4972;" d="M460.15,452.228c0,44-92,37.6-206.4,37.6s-206.4,6.4-206.4-37.6s92-80,206.4-80
	S460.15,407.428,460.15,452.228z"/>
<polygon style="fill:#F9BDA0;" points="295.35,219.428 212.15,219.428 228.95,143.428 278.55,143.428 "/>
<g>
	<path style="fill:#00233F;" d="M202.55,66.628c0,0,5.6,56.8,0.8,68.8c0,0,12-3.2,27.2-4l15.2-17.6l-2.4-56L202.55,66.628z"/>
	<path style="fill:#00233F;" d="M304.95,66.628c0,0-5.6,56.8-0.8,68.8c0,0-12-3.2-27.2-4l-15.2-17.6l2.4-56L304.95,66.628z"/>
	<path style="fill:#00233F;" d="M303.35,40.228c0,32,13.6,40-40,40h-19.2c-21.6,0-40-17.6-40-40l0,0c0-21.6,17.6-40,40-40h19.2
		C285.75,0.228,303.35,18.628,303.35,40.228L303.35,40.228z"/>
</g>
<rect x="228.15" y="98.628" style="fill:#F9BDA0;" width="50.4" height="54.4"/>
<polygon style="fill:#EAA78C;" points="280.15,156.228 253.75,171.428 228.15,98.628 279.35,98.628 "/>
<path style="fill:#FCCCB9;" d="M293.75,54.628c0,38.4-20,73.6-40,73.6c-20.8,0-40-35.2-40-73.6s20-45.6,40-45.6
	C274.55,9.028,293.75,15.428,293.75,54.628z"/>
<g>
	<path style="fill:#F9BDA0;" d="M253.75,9.028c20.8,0,40,6.4,40,45.6s-20,73.6-40,73.6"/>
	<polygon style="fill:#F9BDA0;" points="225.75,157.828 146.55,183.428 150.55,255.428 252.15,229.828 	"/>
</g>
<polyline style="fill:#FCCCB9;" points="146.55,183.428 150.55,255.428 252.15,229.828 "/>
<polygon style="fill:#F9BDA0;" points="281.75,157.828 360.95,183.428 356.95,255.428 255.35,229.828 "/>
<polyline style="fill:#EAA78C;" points="360.95,183.428 356.95,255.428 255.35,229.828 "/>
<g>
	<path style="fill:#00233F;" d="M272.95,1.828c0,0,52,70.4-72.8,71.2c0,0-6.4-40.8,10.4-58.4s46.4-14.4,46.4-14.4L272.95,1.828z"/>
	<path style="fill:#00233F;" d="M244.95,1.828c0,0,11.2,60.8,62.4,67.2c0,0,8-36-6.4-52.8s-40.8-15.2-40.8-15.2L244.95,1.828z"/>
</g>
<path style="fill:#093751;" d="M351.35,349.828c0,66.4-44,109.6-97.6,109.6s-97.6-43.2-97.6-109.6s43.2-120,97.6-120
	S351.35,284.228,351.35,349.828z"/>
<path style="fill:#C91911;" d="M351.35,349.828c0,66.4-44,81.6-97.6,81.6s-97.6-15.2-97.6-81.6s43.2-120,97.6-120
	S351.35,284.228,351.35,349.828z"/>
<path style="fill:#D8462A;" d="M351.35,349.828c0,66.4-44,48-97.6,48s-97.6,18.4-97.6-48s43.2-120,97.6-120
	S351.35,284.228,351.35,349.828z"/>
<g>
	<path style="fill:#C91911;" d="M253.75,229.828c54.4,0,97.6,53.6,97.6,120s-43.2,81.6-97.6,81.6"/>
	<path style="fill:#C91911;" d="M177.75,245.028c0-29.6,33.6-36.8,76-36.8c41.6,0,76,6.4,76,36.8s-33.6,54.4-76,54.4
		C212.15,299.428,177.75,274.628,177.75,245.028z"/>
</g>
<path style="fill:#D8462A;" d="M177.75,245.028c0-29.6,33.6-36.8,76-36.8c41.6,0,76,6.4,76,36.8s-33.6,28-76,28
	C212.15,273.028,177.75,274.628,177.75,245.028z"/>
<path style="fill:#C91911;" d="M253.75,208.228c41.6,0,76,6.4,76,36.8s-33.6,54.4-76,54.4"/>
<path style="fill:#D8462A;" d="M208.95,237.828c0.8,1.6-0.8,3.2-2.4,3.2l0,0c-1.6,0.8-3.2,0-4-1.6l-20.8-69.6
	c-0.8-1.6,0.8-3.2,2.4-3.2l0,0c1.6-0.8,3.2,0,4,1.6L208.95,237.828z"/>
<path style="fill:#C91911;" d="M298.55,237.828c-0.8,1.6,0.8,3.2,2.4,3.2l0,0c1.6,0.8,3.2,0,4-1.6l20.8-68.8
	c0.8-1.6-0.8-3.2-2.4-3.2l0,0c-1.6-0.8-3.2,0-4,1.6L298.55,237.828z"/>
<g>
	<path style="fill:#F46856;" d="M289.75,219.428c0,3.2-16,0-36,0s-36,3.2-36,0s16-6.4,36-6.4S289.75,215.428,289.75,219.428z"/>

		<ellipse transform="matrix(0.3444 -0.9388 0.9388 0.3444 -158.054 362.9387)" style="fill:#F46856;" cx="180.84" cy="294.637" rx="20" ry="7.2"/>
	<circle style="fill:#F46856;" cx="168.95" cy="325.828" r="4"/>
	<circle style="fill:#F46856;" cx="166.55" cy="336.228" r="2.4"/>

		<ellipse transform="matrix(-0.4187 -0.9081 0.9081 -0.4187 77.8076 501.5658)" style="fill:#F46856;" cx="199.431" cy="225.88" rx="3.2" ry="12.8"/>
</g>
<path style="fill:#FCCCB9;" d="M136.15,403.428c-0.8,28.8-15.2,5.6-33.6,6.4c-29.6,1.6-24-8-23.2-16c0-8.8,12.8-24,32-23.2
	C128.95,371.428,136.15,395.428,136.15,403.428z"/>
<path style="fill:#EAA78C;" d="M110.55,370.628c18.4,0.8,25.6,24,25.6,32.8c-0.8,28.8-15.2,5.6-33.6,6.4c-29.6,1.6-24-8-23.2-16"/>
<g>
	<path style="fill:#FCCCB9;" d="M371.35,403.428c0.8,28.8,15.2,5.6,33.6,6.4c29.6,1.6,24-8,23.2-16c0-8.8-12.8-24-32-23.2
		C378.55,371.428,371.35,395.428,371.35,403.428z"/>
	<path style="fill:#FCCCB9;" d="M432.15,503.428c0,10.4-35.2-2.4-55.2-2.4s-18.4-8.8-18.4-19.2c0-10.4-1.6-18.4,18.4-19.2
		C403.35,461.828,432.15,493.028,432.15,503.428z"/>
</g>
<path style="fill:#EAA78C;" d="M359.35,482.628c0-10.4-1.6-18.4,18.4-19.2c25.6-1.6,55.2,29.6,55.2,40"/>
<path style="fill:#093751;" d="M233.75,457.028c0,0,87.2,20,117.6,15.2c0,0-26.4,4-24.8-7.2s44.8,1.6,40-18.4s-39.2-12.8-35.2-26.4
	s-28.8,16-28.8,16l-35.2,12.8L233.75,457.028z"/>
<g>
</g>
<g>
</g>
<g>
</g>
<g>
</g>
<g>
</g>
<g>
</g>
<g>
</g>
<g>
</g>
<g>
</g>
<g>
</g>
<g>
</g>
<g>
</g>
<g>
</g>
<g>
</g>
<g>
</g>
</svg>
