<?xml version="1.0" encoding="iso-8859-1"?>
<!-- Generator: Adobe Illustrator 19.0.0, SVG Export Plug-In . SVG Version: 6.00 Build 0)  -->
<svg version="1.1" id="Layer_1" xmlns="http://www.w3.org/2000/svg"  x="0px" y="0px"
	 viewBox="0 0 512 512" style="enable-background:new 0 0 512 512;" xml:space="preserve">
<circle style="fill:#0F7986;" cx="255.492" cy="256" r="255.492"/>
<path style="fill:#D9DADA;" d="M75.505,40.601h50.344v188.451c0,13.845-11.326,25.171-25.171,25.171l0,0
	c-13.845,0-25.171-11.326-25.171-25.171V40.601H75.505z"/>
<path style="fill:#EEF3F7;" d="M75.505,40.601h46.64v190.405c0,8-3.608,15.199-9.275,20.048c-3.619,2.017-7.776,3.17-12.191,3.17
	l0,0c-13.845,0-25.174-11.326-25.174-25.174V40.601z"/>
<path style="fill:#FF5B62;" d="M80.71,102.508V229.16c0,11.052,9.009,20.131,19.969,20.131c10.963,0,19.969-9.08,19.969-20.131
	V102.508H80.71z"/>
<path style="fill:#EEF3F7;" d="M70.831,33.629h59.696c3.899,0,7.059,3.16,7.059,7.058l0,0c0,3.898-3.161,7.058-7.059,7.058H70.831
	c-3.899,0-7.059-3.16-7.059-7.058l0,0C63.771,36.788,66.933,33.629,70.831,33.629z"/>
<path style="fill:#CCD8DB;" d="M137.587,40.688c0,3.88-3.175,7.057-7.057,7.057H70.828c-3.88,0-7.057-3.175-7.057-7.057H137.587z"/>
<path style="fill:#FEFEFE;" d="M95.764,119.378c2.521,0,4.567,2.046,4.567,4.567s-2.046,4.567-4.567,4.567
	c-2.524,0-4.57-2.046-4.57-4.567C91.195,121.421,93.241,119.378,95.764,119.378z M98.196,197.036c0.671,0,1.217,0.544,1.217,1.217
	c0,0.671-0.544,1.217-1.217,1.217c-0.674,0-1.217-0.544-1.217-1.217C96.979,197.579,97.523,197.036,98.196,197.036z M94.848,176.021
	c2.521,0,4.567,2.046,4.567,4.567c0,2.524-2.046,4.567-4.567,4.567c-2.524,0-4.567-2.046-4.567-4.567
	C90.28,178.067,92.326,176.021,94.848,176.021z M107.03,155.922c4.036,0,7.31,3.274,7.31,7.307c0,4.036-3.274,7.31-7.31,7.31
	c-4.036,0-7.307-3.274-7.307-7.31C99.722,159.196,102.994,155.922,107.03,155.922z"/>
<rect x="168.591" y="76.86" style="fill:#21D0C3;" width="281.002" height="364.626"/>
<polygon style="fill:#DCE3DB;" points="178.699,89.473 430.933,89.473 439.483,430.51 187.249,430.51 "/>
<rect x="182.906" y="89.471" style="fill:#FFFFFF;" width="248.021" height="332.651"/>
<path style="fill:#666666;" d="M276.541,67.993h67.926c4.891,0,8.893,4.002,8.893,8.893v29.195h-85.713V76.888
	C267.647,71.996,271.65,67.993,276.541,67.993z"/>
<path style="fill:#B0B0B0;" d="M265.808,103.876h89.389c1.891,0,3.423,1.532,3.423,3.423v0.003c0,1.891-1.532,3.423-3.423,3.423
	h-89.389c-1.891,0-3.423-1.532-3.423-3.423v-0.003C262.385,105.409,263.918,103.876,265.808,103.876z"/>
<path style="fill:#FEFEFE;" d="M301.571,59.131l-7.23,44.745h-3.72l7.209-44.636c-2.051-2.843-3.094-6.253-3.094-9.6
	c0-2.145,0.428-4.271,1.291-6.221c0.873-1.967,2.189-3.749,3.959-5.176c5.628-4.541,15.384-4.546,21.012-0.003
	c1.774,1.431,3.094,3.218,3.971,5.192c0.865,1.954,1.296,4.092,1.296,6.242c0,3.336-1.035,6.731-3.078,9.566l7.209,44.636h-3.72
	l-7.23-44.745c-0.108-0.567,0.06-1.124,0.407-1.531c1.829-2.286,2.754-5.126,2.754-7.922c0-1.657-0.327-3.289-0.982-4.768
	c-0.647-1.458-1.618-2.775-2.911-3.82c-4.277-3.452-12.16-3.447-16.434,0.003c-1.291,1.04-2.257,2.352-2.9,3.804
	c-0.65,1.473-0.974,3.099-0.974,4.747c0,2.824,0.946,5.696,2.803,8c0.35,0.433,0.468,0.98,0.371,1.486l0,0L301.571,59.131
	L301.571,59.131z"/>
<rect x="417.831" y="162.917" transform="matrix(0.8067 0.591 -0.591 0.8067 210.5895 -211.475)" style="fill:#0F7986;" width="21.419" height="106.477"/>
<g>
	<path style="fill:#FF5B62;" d="M388.439,252.787l17.277,12.659l-17.881,13.092l-6.49-4.755L388.439,252.787z"/>
	<path style="fill:#FF5B62;" d="M496.828,113.392l9.118,6.681c2.626,1.922,3.198,5.644,1.278,8.267l-37.712,51.479
		c-0.1,0.135-0.29,0.164-0.426,0.066l-18.171-13.312c-0.133-0.1-0.164-0.288-0.066-0.423l37.712-51.479
		c1.922-2.623,5.641-3.198,8.267-1.275L496.828,113.392L496.828,113.392z"/>
</g>
<path style="fill:#ED4C54;" d="M507.224,128.337l-37.723,51.492c-0.1,0.121-0.272,0.149-0.402,0.063l-0.013-0.01l-2.197-1.61
	l40.939-55.884C508.682,124.275,508.526,126.558,507.224,128.337z"/>
<path style="fill:#21D0C3;" d="M382.931,274.945l3.318,2.432l-5.816,7.937c-0.668,0.911-1.962,1.113-2.874,0.444l0,0
	c-0.911-0.668-1.113-1.962-0.444-2.874l5.816-7.937L382.931,274.945L382.931,274.945z"/>
<path style="fill:#FAD24D;" d="M488.36,114.942l22.43,16.432l1.209,0.886l-0.935,1.275l-39.611,54.073l-0.364,0.496l-0.599,0.13
	l-3.909,0.863c-1.69,0.162-2.417-2.513-0.496-3.025l3.31-0.731l38.315-52.302l-21.22-15.545l1.868-2.547v-0.004H488.36z"/>
<rect x="434.783" y="168.459" transform="matrix(0.8067 0.591 -0.591 0.8067 215.3283 -214.8772)" style="fill:#076673;" width="2.656" height="106.477"/>
<g>
	<path style="fill:#15BDB2;" d="M279.015,151.266c-1.162,0-2.106-0.943-2.106-2.106s0.943-2.106,2.106-2.106h34.765l7.802-18.906
		c0.439-1.071,1.666-1.583,2.74-1.145c0.549,0.225,0.951,0.658,1.152,1.17l0.008-0.003l11.572,29.214l9.848-16.677
		c0.591-0.998,1.882-1.33,2.879-0.739c0.316,0.188,0.565,0.444,0.739,0.739l5.712,8.755l8.277-8.803
		c0.794-0.844,2.127-0.886,2.97-0.092c0.159,0.151,0.29,0.319,0.394,0.502l3.357,5.989h45.083c1.162,0,2.106,0.943,2.106,2.106
		c0,1.162-0.943,2.106-2.106,2.106H370v-0.003c-0.737,0-1.45-0.389-1.834-1.074l-2.558-4.564l-8.144,8.658v-0.003
		c-0.115,0.118-0.243,0.23-0.387,0.322c-0.969,0.63-2.273,0.356-2.903-0.617l-5.369-8.235l-10.252,17.361
		c-0.225,0.439-0.604,0.8-1.098,0.993c-1.079,0.426-2.307-0.105-2.733-1.183l-11.24-28.374l-6.294,15.255
		c-0.274,0.844-1.066,1.455-2.001,1.455h-36.168L279.015,151.266z"/>
	<rect x="205.159" y="202.33" style="fill:#15BDB2;" width="74.31" height="8.366"/>
</g>
<g>
	<rect x="206.125" y="225.868" style="fill:#D9DADA;" width="20.816" height="20.816"/>
	<rect x="294.619" y="225.868" style="fill:#D9DADA;" width="20.816" height="20.816"/>
</g>
<rect x="205.159" y="282.895" style="fill:#15BDB2;" width="74.31" height="8.366"/>
<g>
	<rect x="206.125" y="306.443" style="fill:#D9DADA;" width="20.816" height="20.816"/>
	<rect x="294.619" y="306.443" style="fill:#D9DADA;" width="20.816" height="20.816"/>
	<path style="fill:#D9DADA;" d="M274.568,358.717h143.572v4.279H274.568V358.717z M274.568,387.509h103.884v4.279H274.568V387.509z
		 M274.568,373.113h143.572v4.279H274.568V373.113z"/>
	<path style="fill:#D9DADA;" d="M233.327,307.416h32.656v4.279h-32.656V307.416z M233.327,320.276h23.63v4.279h-23.63
		L233.327,320.276L233.327,320.276z"/>
	<path style="fill:#D9DADA;" d="M325.148,307.416h32.656v4.279h-32.656V307.416z M325.148,320.276h23.63v4.279h-23.63
		L325.148,320.276L325.148,320.276z"/>
	<path style="fill:#D9DADA;" d="M233.327,226.481h32.656v4.279h-32.656V226.481z M233.327,239.341h23.63v4.279h-23.63
		L233.327,239.341L233.327,239.341z"/>
	<path style="fill:#D9DADA;" d="M325.148,226.481h32.656v4.279h-32.656V226.481z M325.148,239.341h23.63v4.279h-23.63
		L325.148,239.341L325.148,239.341z"/>
</g>
<circle style="fill:#FF5B62;" cx="227.232" cy="145.322" r="28.987"/>
<path style="fill:#FEFEFE;" d="M221.624,124.653h11.227v15.057h15.057v11.227h-15.057v15.057h-11.227v-15.057h-15.057V139.71h15.057
	V124.653z"/>
<g>
	<path style="fill:#0F7986;" d="M296.223,233.805c-0.478-0.486-0.473-1.267,0.016-1.745c0.486-0.478,1.267-0.473,1.745,0.013
		l4.212,4.295l11.407-12.358c0.462-0.502,1.244-0.536,1.748-0.073c0.502,0.462,0.533,1.244,0.073,1.748l-12.288,13.311l0,0
		l-0.042,0.045c-0.486,0.478-1.267,0.473-1.748-0.013l-5.121-5.223L296.223,233.805L296.223,233.805z"/>
	<path style="fill:#0F7986;" d="M212.572,233.805c-0.478-0.486-0.473-1.267,0.016-1.745c0.486-0.478,1.267-0.473,1.745,0.013
		l4.212,4.295l11.407-12.358c0.462-0.502,1.244-0.536,1.748-0.073c0.502,0.462,0.533,1.244,0.073,1.748l-12.288,13.312l0,0
		l-0.042,0.045c-0.486,0.478-1.267,0.473-1.748-0.013l-5.121-5.223h-0.002V233.805z"/>
</g>
<g>
	<path style="fill:#FF5B62;" d="M214.361,308.67c-0.41-0.41-0.41-1.077,0-1.489c0.41-0.41,1.079-0.41,1.489,0l11.836,11.836
		c0.41,0.41,0.41,1.079,0,1.489c-0.41,0.41-1.079,0.41-1.489,0L214.361,308.67z"/>
	<path style="fill:#FF5B62;" d="M227.686,308.67c0.41-0.41,0.41-1.077,0-1.489c-0.41-0.41-1.079-0.41-1.489,0l-11.836,11.836
		c-0.41,0.41-0.41,1.079,0,1.489c0.41,0.41,1.079,0.41,1.489,0L227.686,308.67z"/>
	<path style="fill:#FF5B62;" d="M300.753,307.698c-0.541-0.541-0.541-1.418,0-1.957c0.541-0.541,1.418-0.541,1.957,0l15.566,15.566
		c0.541,0.541,0.541,1.418,0,1.957c-0.541,0.541-1.418,0.541-1.957,0L300.753,307.698z"/>
	<path style="fill:#FF5B62;" d="M318.277,307.698c0.541-0.541,0.541-1.418,0-1.957c-0.541-0.541-1.418-0.541-1.957,0l-15.566,15.566
		c-0.541,0.541-0.541,1.418,0,1.957c0.541,0.541,1.418,0.541,1.957,0L318.277,307.698z"/>
</g>
<g>
</g>
<g>
</g>
<g>
</g>
<g>
</g>
<g>
</g>
<g>
</g>
<g>
</g>
<g>
</g>
<g>
</g>
<g>
</g>
<g>
</g>
<g>
</g>
<g>
</g>
<g>
</g>
<g>
</g>
</svg>
